<?xml version="1.0" standalone="no"?>
<!DOCTYPE svg PUBLIC "-//W3C//DTD SVG 20010904//EN"
 "http://www.w3.org/TR/2001/REC-SVG-20010904/DTD/svg10.dtd">
<svg version="1.0" xmlns="http://www.w3.org/2000/svg"
 width="407.000000pt" height="407.000000pt" viewBox="0 0 407.000000 407.000000"
 preserveAspectRatio="xMidYMid meet">
<metadata>
Created by potrace 1.11, written by Peter Selinger 2001-2013
</metadata>
<g transform="translate(0.000000,407.000000) scale(0.100000,-0.100000)"
fill="#000000" stroke="none">
<path d="M1977 4064 c-1 -1 -42 -4 -92 -8 -578 -42 -1119 -337 -1469 -801
-110 -146 -223 -350 -275 -495 -13 -36 -27 -74 -32 -85 -23 -54 -74 -278 -84
-368 -4 -32 -8 -68 -11 -80 -6 -26 -6 -340 0 -377 2 -14 7 -54 11 -90 4 -36 9
-68 11 -72 3 -4 7 -26 10 -50 15 -111 101 -363 171 -502 266 -531 759 -927
1328 -1065 202 -50 256 -56 505 -55 167 0 226 4 320 22 154 29 147 27 215 48
33 10 65 19 70 20 42 11 170 64 271 114 617 302 1046 911 1122 1590 14 129 6
470 -13 540 -2 8 -6 33 -10 55 -3 22 -10 58 -16 80 -6 22 -13 49 -15 60 -13
72 -87 267 -144 383 -110 220 -221 374 -390 542 -318 316 -714 513 -1160 576
-47 6 -318 22 -323 18z"/>
</g>
</svg>
